<svg xmlns="http://www.w3.org/2000/svg" viewBox="0 0 100 100">
  <rect width="100" height="100" fill="#ffffff"/>
  <path d="M27.5,35 C20,35 15,40 15,50 C15,60 20,65 27.5,65 C35,65 40,60 40,50 C40,40 35,35 27.5,35 Z M27.5,40 C32.5,40 35,44 35,50 C35,56 32.5,60 27.5,60 C22.5,60 20,56 20,50 C20,44 22.5,40 27.5,40 Z" fill="#004B8D"/>
  <path d="M42.5,35 L47.5,35 L47.5,50 L60,35 L65,35 L65,65 L60,65 L60,50 L47.5,65 L42.5,65 L42.5,35 Z" fill="#004B8D"/>
  <path d="M70,35 L70,65 L85,65 L85,60 L75,60 L75,52.5 L85,52.5 L85,47.5 L75,47.5 L75,40 L85,40 L85,35 L70,35 Z" fill="#004B8D"/>
</svg> 