<svg xmlns="http://www.w3.org/2000/svg" viewBox="0 0 100 100">
  <rect width="100" height="100" fill="#ffffff"/>
  <path d="M17.5,40 L17.5,60 L27.5,60 L27.5,55 L22.5,55 L22.5,40 L17.5,40 Z" fill="#4D148C"/>
  <path d="M30,40 L30,60 L35,60 L35,52.5 L42.5,52.5 L42.5,47.5 L35,47.5 L35,45 L42.5,45 L42.5,40 L30,40 Z" fill="#4D148C"/>
  <path d="M45,40 L45,60 L50,60 L50,52.5 L52.5,52.5 L55,60 L60,60 L57.5,52.5 C59.167,51.67 60,50 60,47.5 C60,45 58.333,40 52.5,40 L45,40 Z M50,45 L52.5,45 C53.333,45 55,45.5 55,47.5 C55,49.5 53.333,50 52.5,50 L50,50 L50,45 Z" fill="#4D148C"/>
  <path d="M62.5,40 L62.5,60 L72.5,60 L72.5,55 L67.5,55 L67.5,52.5 L72.5,52.5 L72.5,47.5 L67.5,47.5 L67.5,45 L72.5,45 L72.5,40 L62.5,40 Z" fill="#FF6600"/>
  <path d="M75,40 L75,60 L80,60 L80,52.5 L87.5,52.5 L87.5,47.5 L80,47.5 L80,45 L87.5,45 L87.5,40 L75,40 Z" fill="#FF6600"/>
</svg> 