<svg xmlns="http://www.w3.org/2000/svg" viewBox="0 0 100 100">
  <rect width="100" height="100" fill="#ffffff"/>
  <path d="M50,35 C38,35 28,41.5 28,50 C28,58.5 38,65 50,65 C62,65 72,58.5 72,50 C72,41.5 62,35 50,35 Z M50,40 C60,40 67,44.5 67,50 C67,55.5 60,60 50,60 C40,60 33,55.5 33,50 C33,44.5 40,40 50,40 Z" fill="#009FE3"/>
  <path d="M15,42.5 C15,38.5 18,35 22.5,35 L35,35 L35,40 L22.5,40 C21,40 20,41 20,42.5 L20,57.5 C20,59 21,60 22.5,60 L35,60 L35,65 L22.5,65 C18,65 15,61.5 15,57.5 L15,42.5 Z" fill="#009FE3"/>
  <path d="M75,35 L75,60 L87.5,60 C89,60 90,59 90,57.5 L90,42.5 C90,41 89,40 87.5,40 L75,40 L75,35 L87.5,35 C92,35 95,38.5 95,42.5 L95,57.5 C95,61.5 92,65 87.5,65 L75,65 L72.5,65 L72.5,35 L75,35 Z" fill="#009FE3"/>
</svg> 