<svg xmlns="http://www.w3.org/2000/svg" viewBox="0 0 100 100">
  <rect width="100" height="100" fill="#ffffff"/>
  <path d="M20,40 L20,60 L25,60 L25,52.5 L27.5,52.5 L30,60 L35,60 L32.5,52.5 C34.167,51.67 35,50 35,47.5 C35,45 33.333,40 27.5,40 L20,40 Z M25,45 L27.5,45 C28.333,45 30,45.5 30,47.5 C30,49.5 28.333,50 27.5,50 L25,50 L25,45 Z" fill="#E41E2D"/>
  <path d="M37.5,40 L37.5,60 L42.5,60 L42.5,52.5 L47.5,52.5 L47.5,60 L52.5,60 L52.5,40 L47.5,40 L47.5,47.5 L42.5,47.5 L42.5,40 L37.5,40 Z" fill="#E41E2D"/>
  <path d="M55,40 L55,60 L60,60 L60,53 L62.5,53 C68.333,53 70,48 70,45 C70,42 68.333,40 65,40 L55,40 Z M60,45 L62.5,45 C63.333,45 65,45.5 65,47.5 C65,49.5 63.333,50 62.5,50 L60,50 L60,45 Z" fill="#E41E2D"/>
  <path d="M72.5,40 L72.5,60 L85,60 L85,55 L77.5,55 L77.5,40 L72.5,40 Z" fill="#E41E2D"/>
</svg> 